<?xml version="1.0" encoding="iso-8859-1" standalone="no"?>
<!DOCTYPE svg PUBLIC "-//W3C//DTD SVG 20010904//EN" 
  "http://www.w3.org/TR/2001/REC-SVG-20010904/DTD/svg10.dtd" [ 
<!ENTITY ff "font-family:">
<!ENTITY fs "font-size:">
<!ENTITY fw "font-weight:">
<!ENTITY fst "font-style:">
<!ENTITY sw "stroke-width:">
<!ENTITY as "text-anchor:start;">
<!ENTITY am "text-anchor:middle;">
<!ENTITY ae "text-anchor:end;">
]>
<!-- Generated by ploticus (http://ploticus.sourceforge.net/)
Title: ploticus-graphic
SVG Driver by B.Traill
-->
<svg xmlns="http://www.w3.org/2000/svg" 
  viewBox="0 0 365.20 233.60"      
  xmlns:xlink="http://www.w3.org/1999/xlink"
>
<g transform="translate(-16.80,-332.16)" >                                                       

<g style="fill:#000000;stroke:#000000;&ff;Helvetica;">
<g style="&sw;0.6;&fs;10pt;&as;">
<text x="72.00" y="358.56" stroke="none">First Picture</text>
</g><g style="&sw;0.6;&fs;6pt;&ae;">
<text x="360.00" y="358.56" stroke="none">(drawn 11.04.2013, 20:19:27)</text>
</g><g style="&sw;0.6;&fs;10pt;&am;">
<text x="216.00" y="532.80" stroke="none">x</text>
</g><g style="&sw;0.6;&fs;8pt;&am;">
<text x="72.00" y="519.04" stroke="none">0</text>
</g><g style="&sw;0.5;&fs;8pt;&am;">
<path d="M72 509l0 -5.04" fill="none"/>
<text x="129.60" y="519.04" stroke="none">2</text>
<path d="M129.6 509l0 -5.04" fill="none"/>
<text x="187.20" y="519.04" stroke="none">4</text>
<path d="M187.2 509l0 -5.04" fill="none"/>
<text x="244.80" y="519.04" stroke="none">6</text>
<path d="M244.8 509l0 -5.04" fill="none"/>
<text x="302.40" y="519.04" stroke="none">8</text>
<path d="M302.4 509l0 -5.04" fill="none"/>
<text x="360.00" y="519.04" stroke="none">10</text>
<path d="M360 509l0 -5.04" fill="none"/>
<path d="M72 504l288 0" fill="none"/>
</g><g style="&sw;0.5;&fs;10pt;&am;">
<text x="43.20" y="432.00" stroke="none" transform="rotate(-90,43.20,432.00)" >y</text>
</g><g style="&sw;0.5;&fs;8pt;&ae;">
<text x="61.20" y="507.00" stroke="none">0</text>
<path d="M66.96 504l5.04 0" fill="none"/>
<text x="61.20" y="478.20" stroke="none">20</text>
<path d="M66.96 475.2l5.04 0" fill="none"/>
<text x="61.20" y="449.40" stroke="none">40</text>
<path d="M66.96 446.4l5.04 0" fill="none"/>
<text x="61.20" y="420.60" stroke="none">60</text>
<path d="M66.96 417.6l5.04 0" fill="none"/>
<text x="61.20" y="391.80" stroke="none">80</text>
<path d="M66.96 388.8l5.04 0" fill="none"/>
<text x="61.20" y="363.00" stroke="none">100</text>
<path d="M66.96 360l5.04 0" fill="none"/>
<path d="M72 504l0 -144" fill="none"/>
</g><g style="&sw;1.0;&fs;8pt;&ae;">
<path d="M72 504l5.76 -0.0576l5.76 -0.1728l5.76 -0.288l5.76 -0.4032l5.76 -0.5184l5.76 -0.6336l5.76 -0.7488l5.76 -0.864l5.76 -0.9792l5.76 -1.094l5.76 -1.21l5.76 -1.325l5.76 -1.44l5.76 -1.555l5.76 -1.67l5.76 -1.786l5.76 -1.901l5.76 -2.016l5.76 -2.131l5.76 -2.246l5.76 -2.362l5.76 -2.477l5.76 -2.592l5.76 -2.707l5.76 -2.822l5.76 -2.938l5.76 -3.053l5.76 -3.168l5.76 -3.283l5.76 -3.398l5.76 -3.514l5.76 -3.629l5.76 -3.744l5.76 -3.859l5.76 -3.974l5.76 -4.09l5.76 -4.205l5.76 -4.32l5.76 -4.435l5.76 -4.55l5.76 -4.666l5.76 -4.781l5.76 -4.896l5.76 -5.011l5.76 -5.126l5.76 -5.242l5.76 -5.357l5.76 -5.472l5.76 -5.587l5.76 -5.702" fill="none"/>
</g><g style="fill:#ff0000;stroke:#ff0000;&sw;1.0;&fs;8pt;&ae;">
<path d="M72 504l5.76 -0.01152l5.76 -0.08064l5.76 -0.2189l5.76 -0.4262l5.76 -0.7027l5.76 -1.048l5.76 -1.463l5.76 -1.947l5.76 -2.5l5.76 -3.122l5.76 -3.813l5.76 -4.573l5.76 -5.403l5.76 -6.301l5.76 -7.269l5.76 -8.306l5.76 -9.412l5.76 -10.59l5.76 -11.83l5.76 -13.14l5.76 -14.53l5.76 -15.98l5.76 -17.5" fill="none" stroke-dasharray="1.0,1.0"/>
</g><g style="&sw;1.0;&fs;8pt;&ae;">
<path d="M100.8 535.2l36 0" fill="none"/>
</g><g style="&sw;1.0;&fs;8pt;&as;">
<text x="144.00" y="539.20" stroke="none">Square</text>
</g><g style="fill:#ff0000;stroke:#ff0000;&sw;1.0;&fs;8pt;&as;">
<path d="M100.8 547.4l36 0" fill="none" stroke-dasharray="1.0,1.0"/>
</g><g style="&sw;1.0;&fs;8pt;&as;">
<text x="144.00" y="551.36" stroke="none">Cube</text>
</g></g>
</g>
</svg>
