<?xml version="1.0" encoding="iso-8859-1" standalone="no"?>
<!DOCTYPE svg PUBLIC "-//W3C//DTD SVG 20010904//EN" 
  "http://www.w3.org/TR/2001/REC-SVG-20010904/DTD/svg10.dtd" [ 
<!ENTITY ff "font-family:">
<!ENTITY fs "font-size:">
<!ENTITY fw "font-weight:">
<!ENTITY fst "font-style:">
<!ENTITY sw "stroke-width:">
<!ENTITY as "text-anchor:start;">
<!ENTITY am "text-anchor:middle;">
<!ENTITY ae "text-anchor:end;">
]>
<!-- Generated by ploticus (http://ploticus.sourceforge.net/)
Title: ploticus-graphic
SVG Driver by B.Traill
-->
<svg xmlns="http://www.w3.org/2000/svg" 
  viewBox="0 0 363.20 233.60"      
  xmlns:xlink="http://www.w3.org/1999/xlink"
>
<g transform="translate(-16.80,-332.16)" >                                                       

<g style="fill:#000000;stroke:#000000;&ff;Helvetica;">
<g style="&sw;0.6;&fs;10pt;&as;">
<text x="72.00" y="358.56" stroke="none">Trigonometric functions</text>
</g><g style="&sw;0.6;&fs;6pt;&ae;">
<text x="360.00" y="358.56" stroke="none">(drawn 11.04.2013, 20:19:27)</text>
</g><g style="&sw;0.6;&fs;10pt;&am;">
<text x="216.00" y="532.80" stroke="none">x</text>
</g><g style="&sw;0.6;&fs;8pt;&am;">
<text x="72.00" y="519.04" stroke="none">-5</text>
</g><g style="&sw;0.5;&fs;8pt;&am;">
<path d="M72 509l0 -5.04" fill="none"/>
<text x="129.60" y="519.04" stroke="none">-3</text>
<path d="M129.6 509l0 -5.04" fill="none"/>
<text x="187.20" y="519.04" stroke="none">-1</text>
<path d="M187.2 509l0 -5.04" fill="none"/>
<text x="244.80" y="519.04" stroke="none">1</text>
<path d="M244.8 509l0 -5.04" fill="none"/>
<text x="302.40" y="519.04" stroke="none">3</text>
<path d="M302.4 509l0 -5.04" fill="none"/>
<text x="360.00" y="519.04" stroke="none">5</text>
<path d="M360 509l0 -5.04" fill="none"/>
<path d="M72 504l288 0" fill="none"/>
</g><g style="&sw;0.5;&fs;10pt;&am;">
<text x="43.20" y="432.00" stroke="none" transform="rotate(-90,43.20,432.00)" >y</text>
</g><g style="&sw;0.5;&fs;8pt;&ae;">
<text x="61.20" y="507.00" stroke="none">-3</text>
<path d="M66.96 504l5.04 0" fill="none"/>
<text x="61.20" y="483.00" stroke="none">-2</text>
<path d="M66.96 480l5.04 0" fill="none"/>
<text x="61.20" y="459.00" stroke="none">-1</text>
<path d="M66.96 456l5.04 0" fill="none"/>
<text x="61.20" y="435.00" stroke="none">0</text>
<path d="M66.96 432l5.04 0" fill="none"/>
<text x="61.20" y="411.00" stroke="none">1</text>
<path d="M66.96 408l5.04 0" fill="none"/>
<text x="61.20" y="387.00" stroke="none">2</text>
<path d="M66.96 384l5.04 0" fill="none"/>
<text x="61.20" y="363.00" stroke="none">3</text>
<path d="M66.96 360l5.04 0" fill="none"/>
<path d="M72 504l0 -144" fill="none"/>
</g><g style="&sw;1.0;&fs;8pt;&ae;">
<path d="M72 409l5.76 -0.8938l5.76 0.05937l5.76 1.01l5.76 1.921l5.76 2.755l5.76 3.479l5.76 4.064l5.76 4.488l5.76 4.732l5.76 4.788l5.76 4.653l5.76 4.332l5.76 3.839l5.76 3.193l5.76 2.419l5.76 1.549l5.76 0.6174l5.76 -0.339l5.76 -1.282l5.76 -2.174l5.76 -2.979l5.76 -3.665l5.76 -4.205l5.76 -4.578l5.76 -4.768l5.76 -4.768l5.76 -4.578l5.76 -4.205l5.76 -3.665l5.76 -2.979l5.76 -2.174l5.76 -1.282l5.76 -0.339l5.76 0.6174l5.76 1.549l5.76 2.419l5.76 3.193l5.76 3.839l5.76 4.332l5.76 4.653l5.76 4.788l5.76 4.732l5.76 4.488l5.76 4.064l5.76 3.479l5.76 2.755l5.76 1.921l5.76 1.01l5.76 0.05937l5.76 -0.8938" fill="none"/>
</g><g style="fill:#ff0000;stroke:#ff0000;&sw;1.0;&fs;8pt;&ae;">
<path d="M72 425.2l5.76 4.708l5.76 4.792l5.76 4.684l5.76 4.39l5.76 3.921l5.76 3.296l5.76 2.539l5.76 1.681l5.76 0.7559l5.76 -0.1993l5.76 -1.146l5.76 -2.048l5.76 -2.868l5.76 -3.573l5.76 -4.137l5.76 -4.535l5.76 -4.752l5.76 -4.78l5.76 -4.617l5.76 -4.271l5.76 -3.754l5.76 -3.087l5.76 -2.297l5.76 -1.416l5.76 -0.4784l5.76 0.4784l5.76 1.416l5.76 2.297l5.76 3.087l5.76 3.754l5.76 4.271l5.76 4.617l5.76 4.78l5.76 4.752l5.76 4.535l5.76 4.137l5.76 3.573l5.76 2.868l5.76 2.048l5.76 1.146l5.76 0.1993l5.76 -0.7559l5.76 -1.681l5.76 -2.539l5.76 -3.296l5.76 -3.921l5.76 -4.39l5.76 -4.684l5.76 -4.792l5.76 -4.708" fill="none" stroke-dasharray="1.0,1.0"/>
</g><g style="&sw;1.0;&fs;8pt;&ae;">
<path d="M100.8 535.2l36 0" fill="none"/>
</g><g style="&sw;1.0;&fs;8pt;&as;">
<text x="144.00" y="539.20" stroke="none">Sin</text>
</g><g style="fill:#ff0000;stroke:#ff0000;&sw;1.0;&fs;8pt;&as;">
<path d="M100.8 547.4l36 0" fill="none" stroke-dasharray="1.0,1.0"/>
</g><g style="&sw;1.0;&fs;8pt;&as;">
<text x="144.00" y="551.36" stroke="none">Cos</text>
</g></g>
</g>
</svg>
