<?xml version="1.0" encoding="iso-8859-1" standalone="no"?>
<!DOCTYPE svg PUBLIC "-//W3C//DTD SVG 20010904//EN" 
  "http://www.w3.org/TR/2001/REC-SVG-20010904/DTD/svg10.dtd" [ 
<!ENTITY ff "font-family:">
<!ENTITY fs "font-size:">
<!ENTITY fw "font-weight:">
<!ENTITY fst "font-style:">
<!ENTITY sw "stroke-width:">
<!ENTITY as "text-anchor:start;">
<!ENTITY am "text-anchor:middle;">
<!ENTITY ae "text-anchor:end;">
]>
<!-- Generated by ploticus (http://ploticus.sourceforge.net/)
Title: ploticus-graphic
SVG Driver by B.Traill
-->
<svg xmlns="http://www.w3.org/2000/svg" 
  viewBox="0 0 363.20 217.44"      
  xmlns:xlink="http://www.w3.org/1999/xlink"
>
<g transform="translate(-16.80,-336.16)" >                                                       

<g style="fill:#000000;stroke:#000000;&ff;Helvetica;">
<g style="&sw;0.6;&fs;6pt;&ae;">
<text x="360.00" y="358.56" stroke="none">(drawn 11.04.2013, 20:19:28)</text>
</g><g style="&sw;0.6;&fs;10pt;&am;">
<text x="216.00" y="532.80" stroke="none">x</text>
</g><g style="&sw;0.6;&fs;8pt;&am;">
<text x="72.00" y="519.04" stroke="none">0</text>
</g><g style="&sw;0.5;&fs;8pt;&am;">
<path d="M72 509l0 -5.04" fill="none"/>
<text x="129.60" y="519.04" stroke="none">1</text>
<path d="M129.6 509l0 -5.04" fill="none"/>
<text x="187.20" y="519.04" stroke="none">2</text>
<path d="M187.2 509l0 -5.04" fill="none"/>
<text x="244.80" y="519.04" stroke="none">3</text>
<path d="M244.8 509l0 -5.04" fill="none"/>
<text x="302.40" y="519.04" stroke="none">4</text>
<path d="M302.4 509l0 -5.04" fill="none"/>
<text x="360.00" y="519.04" stroke="none">5</text>
<path d="M360 509l0 -5.04" fill="none"/>
<path d="M72 504l288 0" fill="none"/>
</g><g style="&sw;0.5;&fs;10pt;&am;">
<text x="43.20" y="432.00" stroke="none" transform="rotate(-90,43.20,432.00)" >y</text>
</g><g style="&sw;0.5;&fs;8pt;&ae;">
<text x="61.20" y="507.00" stroke="none">-1</text>
<path d="M66.96 504l5.04 0" fill="none"/>
<text x="61.20" y="471.00" stroke="none">-0.5</text>
<path d="M66.96 468l5.04 0" fill="none"/>
<text x="61.20" y="435.00" stroke="none">0</text>
<path d="M66.96 432l5.04 0" fill="none"/>
<text x="61.20" y="399.00" stroke="none">0.5</text>
<path d="M66.96 396l5.04 0" fill="none"/>
<text x="61.20" y="363.00" stroke="none">1</text>
<path d="M66.96 360l5.04 0" fill="none"/>
<path d="M72 504l0 -144" fill="none"/>
</g><g style="&sw;1.0;&fs;8pt;&ae;">
<path d="M72 432l5.76 -7.188l5.76 -7.116l5.76 -6.973l5.76 -6.761l5.76 -6.481l5.76 -6.136l5.76 -5.729l5.76 -5.266l5.76 -4.75l5.76 -4.186l5.76 -3.581l5.76 -2.94l5.76 -2.269l5.76 -1.576l5.76 -0.8673l5.76 -0.1497l5.76 0.5694l5.76 1.283l5.76 1.983l5.76 2.664l5.76 3.318l5.76 3.939l5.76 4.521l5.76 5.057l5.76 5.543l5.76 5.974l5.76 6.345l5.76 6.652l5.76 6.893l5.76 7.065l5.76 7.167l5.76 7.197l5.76 7.155l5.76 7.041l5.76 6.857l5.76 6.605l5.76 6.287l5.76 5.906l5.76 5.465l5.76 4.971l5.76 4.426l5.76 3.838l5.76 3.21l5.76 2.551l5.76 1.867l5.76 1.164l5.76 0.4487l5.76 -0.2706l5.76 -0.9873l5.76 -1.694" fill="none"/>
<path d="M100.8 535.2l36 0" fill="none"/>
</g><g style="&sw;1.0;&fs;8pt;&as;">
<text x="144.00" y="539.20" stroke="none">Sin</text>
</g></g>
</g>
</svg>
