<?xml version="1.0" encoding="iso-8859-1" standalone="no"?>
<!DOCTYPE svg PUBLIC "-//W3C//DTD SVG 20010904//EN" 
  "http://www.w3.org/TR/2001/REC-SVG-20010904/DTD/svg10.dtd" [ 
<!ENTITY ff "font-family:">
<!ENTITY fs "font-size:">
<!ENTITY fw "font-weight:">
<!ENTITY fst "font-style:">
<!ENTITY sw "stroke-width:">
<!ENTITY as "text-anchor:start;">
<!ENTITY am "text-anchor:middle;">
<!ENTITY ae "text-anchor:end;">
]>
<!-- Generated by ploticus (http://ploticus.sourceforge.net/)
Title: ploticus-graphic
SVG Driver by B.Traill
-->
<svg xmlns="http://www.w3.org/2000/svg" 
  viewBox="0 0 357.60 245.76"      
  xmlns:xlink="http://www.w3.org/1999/xlink"
>
<g transform="translate(-16.80,-332.16)" >                                                       

<g style="fill:#000000;stroke:#000000;&ff;Helvetica;">
<g style="&sw;0.6;&fs;10pt;&as;">
<text x="72.00" y="358.56" stroke="none">Emacs Fun</text>
</g><g style="&sw;0.6;&fs;6pt;&ae;">
<text x="360.00" y="358.56" stroke="none">(drawn 11.04.2013, 20:19:27)</text>
</g><g style="&sw;0.6;&fs;10pt;&am;">
<text x="216.00" y="532.80" stroke="none">Quantity</text>
</g><g style="fill:#00b200;stroke:#00b200;&sw;0.5;&fs;8pt;&am;">
<path d="M176.7 504l0 -144" fill="none"/>
</g><g style="&sw;0.5;&fs;8pt;&am;">
<text x="176.73" y="519.04" stroke="none">q*</text>
<path d="M176.7 509l0 -5.04" fill="none"/>
<path d="M72 504l288 0" fill="none"/>
</g><g style="&sw;0.5;&fs;10pt;&am;">
<text x="43.20" y="432.00" stroke="none" transform="rotate(-90,43.20,432.00)" >y</text>
</g><g style="&sw;0.5;&fs;8pt;&ae;">
<text x="61.20" y="376.08" stroke="none">1000</text>
<path d="M66.96 373.1l5.04 0" fill="none"/>
<text x="61.20" y="428.40" stroke="none">p*</text>
<path d="M66.96 425.4l5.04 0" fill="none"/>
<path d="M72 504l0 -144" fill="none"/>
</g><g style="&sw;1.0;&fs;8pt;&ae;">
<path d="M72 373.1l5.76 2.877l5.76 2.877l5.76 2.877l5.76 2.877l5.76 2.877l5.76 2.877l5.76 2.877l5.76 2.877l5.76 2.877l5.76 2.877l5.76 2.877l5.76 2.877l5.76 2.877l5.76 2.877l5.76 2.877l5.76 2.877l5.76 2.877l5.76 2.877l5.76 2.877l5.76 2.877l5.76 2.877l5.76 2.877l5.76 2.877l5.76 2.877l5.76 2.877l5.76 2.877l5.76 2.877l5.76 2.877l5.76 2.877l5.76 2.877l5.76 2.877l5.76 2.877l5.76 2.877l5.76 2.877l5.76 2.877l5.76 2.877l5.76 2.877l5.76 2.877l5.76 2.877l5.76 2.877l5.76 2.877l5.76 2.877l5.76 2.877l5.76 2.877l5.76 2.877" fill="none"/>
</g><g style="fill:#ff0000;stroke:#ff0000;&sw;1.0;&fs;8pt;&ae;">
<path d="M72 503.9l5.76 -18.4l5.76 -7.623l5.76 -5.849l5.76 -4.931l5.76 -4.345l5.76 -3.928l5.76 -3.612l5.76 -3.362l5.76 -3.158l5.76 -2.987l5.76 -2.841l5.76 -2.714l5.76 -2.603l5.76 -2.505l5.76 -2.417l5.76 -2.338l5.76 -2.266l5.76 -2.2l5.76 -2.14l5.76 -2.084l5.76 -2.033l5.76 -1.985l5.76 -1.94l5.76 -1.898l5.76 -1.859l5.76 -1.822l5.76 -1.788l5.76 -1.755l5.76 -1.724l5.76 -1.694l5.76 -1.666l5.76 -1.64l5.76 -1.614l5.76 -1.59l5.76 -1.567l5.76 -1.544l5.76 -1.523l5.76 -1.503l5.76 -1.483l5.76 -1.464l5.76 -1.446l5.76 -1.428l5.76 -1.412l5.76 -1.395l5.76 -1.379l5.76 -1.364l5.76 -1.349l5.76 -1.335l5.76 -1.321l5.76 -1.308" fill="none" stroke-dasharray="1.0,1.0"/>
</g><g style="fill:#0066cc;stroke:#0066cc;&sw;1.0;&fs;8pt;&ae;">
<path d="M72 425.4l5.76 0l5.76 0l5.76 0l5.76 0l5.76 0l5.76 0l5.76 0l5.76 0l5.76 0l5.76 0l5.76 0l5.76 0l5.76 0l5.76 0l5.76 0l5.76 0l5.76 0l5.76 0l5.76 0l5.76 0l5.76 0l5.76 0l5.76 0l5.76 0l5.76 0l5.76 0l5.76 0l5.76 0l5.76 0l5.76 0l5.76 0l5.76 0l5.76 0l5.76 0l5.76 0l5.76 0l5.76 0l5.76 0l5.76 0l5.76 0l5.76 0l5.76 0l5.76 0l5.76 0l5.76 0l5.76 0l5.76 0l5.76 0l5.76 0l5.76 0" fill="none" stroke-dasharray="3.0,1.0"/>
</g><g style="&sw;1.0;&fs;8pt;&ae;">
<path d="M100.8 535.2l36 0" fill="none"/>
</g><g style="&sw;1.0;&fs;8pt;&as;">
<text x="144.00" y="539.20" stroke="none">Demand</text>
</g><g style="fill:#ff0000;stroke:#ff0000;&sw;1.0;&fs;8pt;&as;">
<path d="M100.8 547.4l36 0" fill="none" stroke-dasharray="1.0,1.0"/>
</g><g style="&sw;1.0;&fs;8pt;&as;">
<text x="144.00" y="551.36" stroke="none">Supply</text>
</g><g style="fill:#0066cc;stroke:#0066cc;&sw;1.0;&fs;8pt;&as;">
<path d="M100.8 559.5l36 0" fill="none" stroke-dasharray="3.0,1.0"/>
</g><g style="&sw;1.0;&fs;8pt;&as;">
<text x="144.00" y="563.52" stroke="none">Market-Price</text>
</g></g>
</g>
</svg>
